<svg width="40" height="40" viewBox="0 0 24 24" fill="none" xmlns="http://www.w3.org/2000/svg">
<path d="M13.5 2C13.5 2 16.5 2.5 16.5 6C16.5 9.5 13.5 10 13.5 10M10.5 2C10.5 2 7.5 2.5 7.5 6C7.5 9.5 10.5 10 10.5 10M20.29 10.49L21.88 12.08C22.1 12.3 22.1 12.7 21.88 12.92L20.29 14.51C20.06 14.74 19.64 14.74 19.41 14.51L17.82 12.92C17.6 12.7 17.6 12.3 17.82 12.08L19.41 10.49C19.64 10.26 20.06 10.26 20.29 10.49ZM7 10H17V20C17 20.55 16.55 21 16 21H8C7.45 21 7 20.55 7 20V10Z" stroke="#2E7CE8" stroke-width="2" stroke-linecap="round" stroke-linejoin="round"/>
</svg>